<?xml version="1.0" encoding="utf-8"?>
<!-- Generator: Adobe Illustrator 28.0.0, SVG Export Plug-In . SVG Version: 6.00 Build 0)  -->
<svg version="1.1" id="Layer_1" xmlns="http://www.w3.org/2000/svg" xmlns:xlink="http://www.w3.org/1999/xlink" x="0px" y="0px"
	 viewBox="0 0 1062 648" style="enable-background:new 0 0 1062 648;" xml:space="preserve">
<style type="text/css">
	.st0{fill:none;stroke:#FFFFFF;stroke-miterlimit:10;}
	.st1{fill:#1CA2C8;}
	.st2{fill:#194C9F;}
	.st3{opacity:0.78;fill:#20A4CA;}
	.st4{font-family:'Sylfaen';}
	.st5{font-size:30.4506px;}
	.st6{font-size:45.6759px;}
	.st7{font-size:78.3015px;}
</style>
<path class="st0" d="M427.4,175.87"/>
<ellipse class="st1" cx="462.51" cy="171.98" rx="34.19" ry="32.92"/>
<path class="st2" d="M402.91,277.03l-3,2c-16.42,10.94-38.95,7-50.31-8.81l-65.11-90.57c-11.37-15.81-7.27-37.5,9.15-48.44l3-2
	c16.42-10.94,38.95-7,50.31,8.81l65.11,90.57C423.43,244.4,419.33,266.09,402.91,277.03z"/>
<path class="st3" d="M434.48,256.01l-33.34,22.22c-1.4,0.93-3.32,0.6-4.28-0.75l-68.88-95.82c-11.29-15.71-7.22-37.25,9.09-48.12
	l9.73-6.49c16.31-10.87,38.69-6.95,49.98,8.75l47.84,66.55C457.21,219.87,452.67,243.89,434.48,256.01z"/>
<text transform="matrix(1.0936 0 0 1 231.4268 390.3369)"><tspan x="0" y="0" class="st4 st5">SERVICES PVT LTD</tspan><tspan x="267.3" y="0" class="st4 st6">.</tspan></text>
<text transform="matrix(1.0936 0 0 1 90.7334 349.8857)" class="st4 st7">VINFOCOM IT</text>
<rect x="540.87" y="390.24" width="53.34" height="1.67"/>
<rect x="168.29" y="390.89" width="53.34" height="1.67"/>
</svg>
